<svg width="38" height="38" viewBox="0 0 38 38" fill="none" xmlns="http://www.w3.org/2000/svg">
<path d="M0 19C0 8.50659 8.50659 0 19 0C29.4934 0 38 8.50659 38 19C38 29.4934 29.4934 38 19 38C8.50659 38 0 29.4934 0 19Z" fill="url(#paint0_linear_904_3419)"/>
<path d="M24.0378 25.4772V24.0378C24.0378 23.2743 23.7345 22.5421 23.1946 22.0022C22.6547 21.4624 21.9225 21.1591 21.159 21.1591H16.8408C16.0773 21.1591 15.3451 21.4624 14.8052 22.0022C14.2653 22.5421 13.962 23.2743 13.962 24.0378V25.4772" stroke="white" stroke-width="1.43939" stroke-linecap="round" stroke-linejoin="round"/>
<path d="M19 18.2803C20.5899 18.2803 21.8788 16.9914 21.8788 15.4015C21.8788 13.8116 20.5899 12.5227 19 12.5227C17.4101 12.5227 16.1212 13.8116 16.1212 15.4015C16.1212 16.9914 17.4101 18.2803 19 18.2803Z" stroke="white" stroke-width="1.43939" stroke-linecap="round" stroke-linejoin="round"/>
<defs>
<linearGradient id="paint0_linear_904_3419" x1="19" y1="0" x2="19" y2="38" gradientUnits="userSpaceOnUse">
<stop stop-color="#0064FF"/>
<stop offset="1" stop-color="#00FF7D"/>
</linearGradient>
</defs>
</svg>
