<svg width="17" height="17" viewBox="0 0 17 17" fill="none" xmlns="http://www.w3.org/2000/svg">
<path d="M15.5833 7.72091V2.90425C15.5833 1.84175 15.13 1.41675 14.0038 1.41675H11.1421C10.0158 1.41675 9.5625 1.84175 9.5625 2.90425V7.72091C9.5625 8.78341 10.0158 9.20841 11.1421 9.20841H14.0038C15.13 9.20841 15.5833 8.78341 15.5833 7.72091Z" stroke="white" stroke-width="1.0625" stroke-linecap="round" stroke-linejoin="round"/>
<path d="M15.5833 14.0958V12.8208C15.5833 11.7583 15.13 11.3333 14.0038 11.3333H11.1421C10.0158 11.3333 9.5625 11.7583 9.5625 12.8208V14.0958C9.5625 15.1583 10.0158 15.5833 11.1421 15.5833H14.0038C15.13 15.5833 15.5833 15.1583 15.5833 14.0958Z" stroke="white" stroke-width="1.0625" stroke-linecap="round" stroke-linejoin="round"/>
<path d="M7.43751 9.27925V14.0959C7.43751 15.1584 6.98417 15.5834 5.85792 15.5834H2.99626C1.87001 15.5834 1.41667 15.1584 1.41667 14.0959V9.27925C1.41667 8.21675 1.87001 7.79175 2.99626 7.79175H5.85792C6.98417 7.79175 7.43751 8.21675 7.43751 9.27925Z" stroke="white" stroke-width="1.0625" stroke-linecap="round" stroke-linejoin="round"/>
<path d="M7.43751 2.90425V4.17925C7.43751 5.24175 6.98417 5.66675 5.85792 5.66675H2.99626C1.87001 5.66675 1.41667 5.24175 1.41667 4.17925V2.90425C1.41667 1.84175 1.87001 1.41675 2.99626 1.41675H5.85792C6.98417 1.41675 7.43751 1.84175 7.43751 2.90425Z" stroke="white" stroke-width="1.0625" stroke-linecap="round" stroke-linejoin="round"/>
</svg>
