<svg width="17" height="17" viewBox="0 0 17 17" fill="none" xmlns="http://www.w3.org/2000/svg">
<path d="M4.76709 13.9542C5.34792 13.3309 6.23334 13.3805 6.74334 14.0605L7.45875 15.0167C8.0325 15.7747 8.96042 15.7747 9.53417 15.0167L10.2496 14.0605C10.7596 13.3805 11.645 13.3309 12.2258 13.9542C13.4867 15.3001 14.5138 14.8538 14.5138 12.9697V4.98675C14.5208 2.13216 13.855 1.41675 11.1775 1.41675H5.82251C3.14501 1.41675 2.47917 2.13216 2.47917 4.98675V12.9626C2.47917 14.8538 3.51334 15.293 4.76709 13.9542Z" stroke="white" stroke-width="1.0625" stroke-linecap="round" stroke-linejoin="round"/>
<path d="M5.73472 7.79167H5.74108" stroke="white" stroke-width="1.41667" stroke-linecap="round" stroke-linejoin="round"/>
<path d="M7.71973 7.79175H11.6156" stroke="white" stroke-width="1.0625" stroke-linecap="round" stroke-linejoin="round"/>
<path d="M5.73472 4.95841H5.74108" stroke="white" stroke-width="1.41667" stroke-linecap="round" stroke-linejoin="round"/>
<path d="M7.71973 4.95825H11.6156" stroke="white" stroke-width="1.0625" stroke-linecap="round" stroke-linejoin="round"/>
</svg>
