<svg width="17" height="17" viewBox="0 0 17 17" fill="none" xmlns="http://www.w3.org/2000/svg">
<path d="M8.5 4.56152V6.92027" stroke="white" stroke-width="1.0625" stroke-miterlimit="10" stroke-linecap="round"/>
<path d="M8.51416 1.4165C5.90749 1.4165 3.79666 3.52734 3.79666 6.134V7.6215C3.79666 8.10317 3.59832 8.82567 3.35041 9.2365L2.45082 10.7382C1.89832 11.6661 2.28082 12.7003 3.30082 13.0403C6.68666 14.1665 10.3487 14.1665 13.7346 13.0403C14.6908 12.7215 15.1017 11.6023 14.5846 10.7382L13.685 9.2365C13.4371 8.82567 13.2387 8.09609 13.2387 7.6215V6.134C13.2317 3.5415 11.1067 1.4165 8.51416 1.4165Z" stroke="white" stroke-width="1.0625" stroke-miterlimit="10" stroke-linecap="round"/>
<path d="M10.8588 13.3308C10.8588 14.6271 9.79627 15.6896 8.50002 15.6896C7.85543 15.6896 7.26043 15.4204 6.83543 14.9954C6.41043 14.5704 6.14127 13.9754 6.14127 13.3308" stroke="white" stroke-width="1.0625" stroke-miterlimit="10"/>
</svg>
