<svg width="17" height="17" viewBox="0 0 17 17" fill="none" xmlns="http://www.w3.org/2000/svg">
<path d="M8.5 10.625C9.6736 10.625 10.625 9.6736 10.625 8.5C10.625 7.32639 9.6736 6.375 8.5 6.375C7.32639 6.375 6.375 7.32639 6.375 8.5C6.375 9.6736 7.32639 10.625 8.5 10.625Z" stroke="white" stroke-width="1.0625" stroke-miterlimit="10" stroke-linecap="round" stroke-linejoin="round"/>
<path d="M1.41667 9.12319V7.87652C1.41667 7.13985 2.01876 6.53069 2.76251 6.53069C4.04459 6.53069 4.56875 5.62402 3.92417 4.51194C3.55584 3.87444 3.77542 3.04569 4.42 2.67735L5.64542 1.9761C6.205 1.64319 6.9275 1.84152 7.26042 2.4011L7.33834 2.53569C7.97584 3.64777 9.02417 3.64777 9.66875 2.53569L9.74667 2.4011C10.0796 1.84152 10.8021 1.64319 11.3617 1.9761L12.5871 2.67735C13.2317 3.04569 13.4513 3.87444 13.0829 4.51194C12.4383 5.62402 12.9625 6.53069 14.2446 6.53069C14.9813 6.53069 15.5904 7.13277 15.5904 7.87652V9.12319C15.5904 9.85985 14.9883 10.469 14.2446 10.469C12.9625 10.469 12.4383 11.3757 13.0829 12.4878C13.4513 13.1324 13.2317 13.954 12.5871 14.3224L11.3617 15.0236C10.8021 15.3565 10.0796 15.1582 9.74667 14.5986L9.66875 14.464C9.03125 13.3519 7.98292 13.3519 7.33834 14.464L7.26042 14.5986C6.9275 15.1582 6.205 15.3565 5.64542 15.0236L4.42 14.3224C3.77542 13.954 3.55584 13.1253 3.92417 12.4878C4.56875 11.3757 4.04459 10.469 2.76251 10.469C2.01876 10.469 1.41667 9.85985 1.41667 9.12319Z" stroke="white" stroke-width="1.0625" stroke-miterlimit="10" stroke-linecap="round" stroke-linejoin="round"/>
</svg>
