<svg width="17" height="17" viewBox="0 0 17 17" fill="none" xmlns="http://www.w3.org/2000/svg">
<path d="M8.61334 7.69942C8.54251 7.69234 8.45751 7.69234 8.37959 7.69942C6.69376 7.64275 5.35501 6.2615 5.35501 4.5615C5.35501 2.82609 6.75751 1.4165 8.50001 1.4165C10.2354 1.4165 11.645 2.82609 11.645 4.5615C11.6379 6.2615 10.2992 7.64275 8.61334 7.69942Z" stroke="white" stroke-width="1.0625" stroke-linecap="round" stroke-linejoin="round"/>
<path d="M5.07167 10.3135C3.3575 11.461 3.3575 13.331 5.07167 14.4714C7.01958 15.7747 10.2142 15.7747 12.1621 14.4714C13.8762 13.3239 13.8762 11.4539 12.1621 10.3135C10.2212 9.01725 7.02667 9.01725 5.07167 10.3135Z" stroke="white" stroke-width="1.0625" stroke-linecap="round" stroke-linejoin="round"/>
</svg>
